<svg width="26" height="26" viewBox="0 0 26 26" fill="none" xmlns="http://www.w3.org/2000/svg">
<path d="M11 18.75L19.8125 9.9375L18.0625 8.1875L11 15.25L7.4375 11.6875L5.6875 13.4375L11 18.75ZM12.75 25.5C11.0208 25.5 9.39583 25.1719 7.875 24.5156C6.35417 23.8594 5.03125 22.9688 3.90625 21.8438C2.78125 20.7188 1.89063 19.3958 1.23438 17.875C0.578125 16.3542 0.25 14.7292 0.25 13C0.25 11.2708 0.578125 9.64583 1.23438 8.125C1.89063 6.60417 2.78125 5.28125 3.90625 4.15625C5.03125 3.03125 6.35417 2.14063 7.875 1.48438C9.39583 0.828125 11.0208 0.5 12.75 0.5C14.4792 0.5 16.1042 0.828125 17.625 1.48438C19.1458 2.14063 20.4688 3.03125 21.5938 4.15625C22.7188 5.28125 23.6094 6.60417 24.2656 8.125C24.9219 9.64583 25.25 11.2708 25.25 13C25.25 14.7292 24.9219 16.3542 24.2656 17.875C23.6094 19.3958 22.7188 20.7188 21.5938 21.8438C20.4688 22.9688 19.1458 23.8594 17.625 24.5156C16.1042 25.1719 14.4792 25.5 12.75 25.5Z" fill="#16A6A7"/>
</svg>
