<svg width="16" height="16" viewBox="0 0 16 16" fill="none" xmlns="http://www.w3.org/2000/svg">
<path d="M3.53025 1.71429C3.53025 2.66106 2.73998 3.42857 1.76513 3.42857C0.790274 3.42857 0 2.66106 0 1.71429C0 0.767512 0.790274 0 1.76513 0C2.73998 0 3.53025 0.767512 3.53025 1.71429Z" fill="white"/>
<path d="M0.0569257 16H3.4733V4.57143H0.0569257V16Z" fill="white"/>
<path d="M12.5836 16H16V9.54629C16 8.00229 15.639 6.90286 14.9136 6.08343C14.1927 5.26514 13.2487 4.93943 12.0814 4.93943C10.5463 4.93943 9.4269 5.71429 8.72654 6.85714H8.65594L8.44754 4.57143H5.75088C5.79643 5.71429 5.75088 16 5.75088 16H9.16725V8.84343C9.44967 7.95543 10.0122 7.512 10.8994 7.512C12.0188 7.512 12.5836 8.304 12.5836 9.89486V16Z" fill="white"/>
</svg>
