<svg width="15" height="18" viewBox="0 0 15 18" fill="none" xmlns="http://www.w3.org/2000/svg">
<path d="M7.2 9C7.695 9 8.1189 8.8236 8.4717 8.4708C8.8239 8.1186 9 7.695 9 7.2C9 6.705 8.8239 6.2811 8.4717 5.9283C8.1189 5.5761 7.695 5.4 7.2 5.4C6.705 5.4 6.2814 5.5761 5.9292 5.9283C5.5764 6.2811 5.4 6.705 5.4 7.2C5.4 7.695 5.5764 8.1186 5.9292 8.4708C6.2814 8.8236 6.705 9 7.2 9ZM7.2 15.615C9.03 13.935 10.3875 12.4086 11.2725 11.0358C12.1575 9.6636 12.6 8.445 12.6 7.38C12.6 5.745 12.0786 4.4061 11.0358 3.3633C9.9936 2.3211 8.715 1.8 7.2 1.8C5.685 1.8 4.4061 2.3211 3.3633 3.3633C2.3211 4.4061 1.8 5.745 1.8 7.38C1.8 8.445 2.2425 9.6636 3.1275 11.0358C4.0125 12.4086 5.37 13.935 7.2 15.615ZM7.2 18C4.785 15.945 2.9814 14.0361 1.7892 12.2733C0.5964 10.5111 0 8.88 0 7.38C0 5.13 0.7239 3.3375 2.1717 2.0025C3.6189 0.6675 5.295 0 7.2 0C9.105 0 10.7811 0.6675 12.2283 2.0025C13.6761 3.3375 14.4 5.13 14.4 7.38C14.4 8.88 13.8039 10.5111 12.6117 12.2733C11.4189 14.0361 9.615 15.945 7.2 18Z" fill="white"/>
</svg>
