<svg width="22" height="17" viewBox="0 0 22 17" fill="none" xmlns="http://www.w3.org/2000/svg">
<path d="M21.21 2C20.44 2.35 19.61 2.58 18.75 2.69C19.63 2.16 20.31 1.32 20.63 0.31C19.8 0.81 18.88 1.16 17.91 1.36C17.12 0.5 16.01 0 14.75 0C12.4 0 10.48 1.92 10.48 4.29C10.48 4.63 10.52 4.96 10.59 5.27C7.03004 5.09 3.86004 3.38 1.75004 0.79C1.38004 1.42 1.17004 2.16 1.17004 2.94C1.17004 4.43 1.92004 5.75 3.08004 6.5C2.37004 6.5 1.71004 6.3 1.13004 6V6.03C1.13004 8.11 2.61004 9.85 4.57004 10.24C3.94077 10.4122 3.28013 10.4362 2.64004 10.31C2.91165 11.1625 3.44358 11.9084 4.16106 12.4429C4.87854 12.9775 5.74549 13.2737 6.64004 13.29C5.12367 14.4904 3.24404 15.1393 1.31004 15.13C0.970039 15.13 0.630039 15.11 0.290039 15.07C2.19004 16.29 4.45004 17 6.87004 17C14.75 17 19.08 10.46 19.08 4.79C19.08 4.6 19.08 4.42 19.07 4.23C19.91 3.63 20.63 2.87 21.21 2Z" fill="white"/>
</svg>
