<svg width="16" height="11" viewBox="0 0 16 11" fill="none" xmlns="http://www.w3.org/2000/svg">
<path d="M7.99996 8.6665C8.83329 8.6665 9.54174 8.37495 10.1253 7.79184C10.7084 7.20828 11 6.49984 11 5.6665C11 4.83317 10.7084 4.12473 10.1253 3.54117C9.54174 2.95806 8.83329 2.6665 7.99996 2.6665C7.16663 2.6665 6.45818 2.95806 5.87463 3.54117C5.29152 4.12473 4.99996 4.83317 4.99996 5.6665C4.99996 6.49984 5.29152 7.20828 5.87463 7.79184C6.45818 8.37495 7.16663 8.6665 7.99996 8.6665ZM7.99996 7.4665C7.49996 7.4665 7.07507 7.29139 6.72529 6.94117C6.37507 6.59139 6.19996 6.1665 6.19996 5.6665C6.19996 5.1665 6.37507 4.74139 6.72529 4.39117C7.07507 4.04139 7.49996 3.8665 7.99996 3.8665C8.49996 3.8665 8.92507 4.04139 9.27529 4.39117C9.62507 4.74139 9.79996 5.1665 9.79996 5.6665C9.79996 6.1665 9.62507 6.59139 9.27529 6.94117C8.92507 7.29139 8.49996 7.4665 7.99996 7.4665ZM7.99996 10.6665C6.37774 10.6665 4.89996 10.2136 3.56663 9.30784C2.23329 8.4025 1.26663 7.18873 0.666626 5.6665C1.26663 4.14428 2.23329 2.93028 3.56663 2.0245C4.89996 1.11917 6.37774 0.666504 7.99996 0.666504C9.62218 0.666504 11.1 1.11917 12.4333 2.0245C13.7666 2.93028 14.7333 4.14428 15.3333 5.6665C14.7333 7.18873 13.7666 8.4025 12.4333 9.30784C11.1 10.2136 9.62218 10.6665 7.99996 10.6665ZM7.99996 9.33317C9.25552 9.33317 10.4084 9.0025 11.4586 8.34117C12.5084 7.68028 13.3111 6.78873 13.8666 5.6665C13.3111 4.54428 12.5084 3.6525 11.4586 2.99117C10.4084 2.33028 9.25552 1.99984 7.99996 1.99984C6.7444 1.99984 5.59152 2.33028 4.54129 2.99117C3.49151 3.6525 2.68885 4.54428 2.13329 5.6665C2.68885 6.78873 3.49151 7.68028 4.54129 8.34117C5.59152 9.0025 6.7444 9.33317 7.99996 9.33317Z" fill="white"/>
</svg>
