<svg width="22" height="16" viewBox="0 0 22 16" fill="none" xmlns="http://www.w3.org/2000/svg">
<path d="M21.3075 2.9449C21.188 2.50093 20.9539 2.09614 20.6288 1.77103C20.3037 1.44592 19.8989 1.2119 19.455 1.0924C17.82 0.649902 11.25 0.649902 11.25 0.649902C11.25 0.649902 4.67995 0.649902 3.04495 1.0924C2.60098 1.2119 2.19619 1.44592 1.87108 1.77103C1.54597 2.09614 1.31196 2.50093 1.19245 2.9449C0.887163 4.61235 0.739014 6.30477 0.749954 7.9999C0.739014 9.69503 0.887163 11.3875 1.19245 13.0549C1.31196 13.4989 1.54597 13.9037 1.87108 14.2288C2.19619 14.5539 2.60098 14.7879 3.04495 14.9074C4.67995 15.3499 11.25 15.3499 11.25 15.3499C11.25 15.3499 17.82 15.3499 19.455 14.9074C19.8989 14.7879 20.3037 14.5539 20.6288 14.2288C20.9539 13.9037 21.188 13.4989 21.3075 13.0549C21.6127 11.3875 21.7609 9.69503 21.75 7.9999C21.7609 6.30477 21.6127 4.61235 21.3075 2.9449ZM9.14995 11.1499V4.8499L14.6025 7.9999L9.14995 11.1499Z" fill="white"/>
</svg>
